<mxfile host="app.diagrams.net" modified="2023-11-18T02:14:16.551Z" agent="Mozilla/5.0 (Windows NT 10.0; Win64; x64) AppleWebKit/537.36 (KHTML, like Gecko) Chrome/119.0.0.0 Safari/537.36" version="22.1.2" etag="KjlSBzCetxU6VcZFz1nm" type="github">
  <diagram name="Page-1" id="aDoV6QOwo6j4P8J9khxe">
    <mxGraphModel>
      <root>
        <mxCell id="0" />
        <mxCell id="1" parent="0" />
      </root>
    </mxGraphModel>
  </diagram>
</mxfile>
